<svg width="24" height="24" viewBox="0 0 24 24" fill="none" xmlns="http://www.w3.org/2000/svg">
<path d="M7 12H15V14H7V12ZM9 20H5V4H12V9H17V12.1L19 10.1V8L13 2H5C4.46957 2 3.96086 2.21071 3.58579 2.58579C3.21071 2.96086 3 3.46957 3 4V20C3 20.5304 3.21071 21.0391 3.58579 21.4142C3.96086 21.7893 4.46957 22 5 22H9V20ZM7 18H11.1L12 17.1V16H7V18ZM19.2 13C19.3 13 19.5 13.1 19.6 13.2L20.9 14.5C21.1 14.7 21.1 15.1 20.9 15.3L19.9 16.3L17.8 14.2L18.8 13.2C18.9 13.1 19 13 19.2 13ZM19.2 16.9L13.1 23H11V20.9L17.1 14.8L19.2 16.9Z" fill="#B85A5A"/>
</svg>
