<?xml version="1.0" encoding="utf-8"?>

<!DOCTYPE svg PUBLIC "-//W3C//DTD SVG 1.1//EN" "http://www.w3.org/Graphics/SVG/1.1/DTD/svg11.dtd">
<svg version="1.1" id="Layer_1" xmlns="http://www.w3.org/2000/svg" xmlns:xlink="http://www.w3.org/1999/xlink" x="0px" y="0px"
	 viewBox="0 0 2642 1262" enable-background="new 0 0 2642 1262" xml:space="preserve">
<g>
	<g>
		<g>
			<g>
				<path d="M2348.833,536.491c1.328,7.307,3.393,11.917-64.799,45l0.492,3.392c73.835,12.289,73.852,17.629,75.019,25.432
					l3.737-0.235c-0.419-6.096-0.822-13.114-2.508-27.289l-3.717,0.451c0.881,13.613-3.193,12.252-21.385,7.719
					c-0.945-7.934-1.715-14.525-3.318-23.949c18.925-10.215,19.178-13.995,22.323-0.852l3.697-0.593
					c-1.741-10.183-2.355-14.267-5.894-29.928L2348.833,536.491z M2330.809,589.813c-9.164-2.092-20.513-4.443-30.028-6.135
					c10.148-4.974,18.73-9.51,27.24-14.163C2329.119,575.93,2330.044,583.399,2330.809,589.813z"/>
				<path d="M2295.194,487.634l-0.438,0.184c-10.051-13.524-27.413-9.215-31.401,2.636c-3.118,9.113,1.468,11.866,10.163,39.712
					l3.577-1.105c-1.442-7.153,1.428-8.879,4.312-9.849c59.75-20.019,55.192-21.818,60.138-9.675l3.579-1.101
					c-4.697-15.174-8.442-27.096-13.048-35.475c-12.365-22.53-35.119-14.211-37.775,2.52
					C2293.72,479.017,2293.884,483.08,2295.194,487.634z M2299.202,502.751l-27.021,9.942c-2.311-5.702-10.03-17.524,7.949-23.304
					C2294.013,484.928,2296.805,496.395,2299.202,502.751z M2326.952,474.334c3.831,3.802,5.776,9.923,4.982,13.573
					c-0.877,4.069-1.76,3.436-28.525,13.297c-3.234-7.477-6.275-13.556-3.582-19.852
					C2303.547,472.539,2319.194,466.63,2326.952,474.334z"/>
				<path d="M2253.385,383.336l1.115,4.057c30.269-12.782,49.983,32.797-0.057,51.724c-21.992,8.294-40.107-3.885-18.495-31.436
					l-2.507-2.771l-19.563,18.147c0.566,0.623,1.724,1.888,2.215,2.458l3.81-1.055c1.744,32.277,47.565,31.391,67.216,5.84
					c16.475-21.306,1.592-50.645-22.762-49.398C2260.841,381.078,2257.167,381.861,2253.385,383.336z"/>
				<path d="M2169.941,383.116c6.572,6.943,15.803,12.693,23.922,19.949l2.494-2.792c-4.804-5.061-3.461-7.986-1.303-10.552
					c39.384-46.735,36.326-48.252,46.483-39.384l2.498-2.789c-22.238-19.762-46.962-40.987-69.795-19.567
					C2161.083,340.319,2153.748,365.954,2169.941,383.116z M2217.581,331.702c8.552,7.93,5.685,7.171-33.556,57.23
					c-5.806-3.974-19.654-11.39-12.316-34.306C2178.656,333,2199.098,315.099,2217.581,331.702z"/>
				<path d="M2091.956,292.147c0.718-1.251,8.905-13.476,14.975-13.365c4.127,0.079,9.113,1.639,11.041,2.221
					c17.037,5.303,14.026,4.762,3.064,35.11c-9.445-3.366-17.16-3.42-14.058-18.048l-3.554-1.01l-8.039,28.196l3.244,0.92
					c5.463-13.42,11.632-9.306,20.935-5.992l-10.125,27.964c-12.344-4.236-12.733-4.199-15.756-5.617
					c-3.604-1.699-5.442-11.363-5.29-15.431l-3.232-0.82l-4.398,17.49c17.252,4.231,36.671,11.574,43.276,14.694l1.494-3.432
					c-9.902-5.405-8.084-2.837,14.727-59.849c2.103-5.302,6.062-4.059,12.157-1.892l1.495-3.433
					c-19.829-8.814-38.283-14.434-58.988-19.69l-6.43,21.145C2089.601,291.542,2090.398,291.752,2091.956,292.147z"/>
				<path d="M2003.622,334.637c16.182,0.097,30.763,0.78,46.929,3.195l0.531-3.706c-11.05-2.672-8.676-0.358-1.544-61.819
					c0.713-6.224,5.526-5.221,11.103-4.839l0.531-3.706c-11.047-1.539-19.587-2.483-31.994-3.228l-0.222,3.738
					c13.093,1.244,9.962,4.627,7.521,33.167c-10.65-0.936-18.347,0.763-18.838-14.051l-3.679-0.117l-0.667,29.418l3.393,0.11
					c1.562-13.981,9.178-11.955,19.42-11.051l-2.583,29.946c-17.906-1.704-18.428,0.681-23.086-7.185
					c-1.676-2.869-3.024-6.231-3.543-8.569l-3.365-0.021L2003.622,334.637z"/>
				<path d="M1909.36,305.314c8.885-2.274,20.018-4.463,29.012-6.01l-0.647-3.795c-10.484,1.083-11.795-0.909-12.783-5.9
					c-2.947-14.928-3.761-14.424,2.195-18.167c33.075-19.892,48.24,44.404,28.291,61.616c-8.174,6.982-20.321,6.53-30.618-15.938
					l-3.683,0.818l6.024,25.455l3.371-0.751l1.008-3.866c38.924,18.205,61.258-50.191,26.899-71.035
					c-14.976-9.066-33.053-3.382-46.979,7.348c7.054,23.715,5.079,23.198-2.998,26.481L1909.36,305.314z"/>
				<path d="M1803.681,312.096c11.458-4.945,9.007-2.702,33.993,51.163c1.453,3.146,1.904,5.975-4.681,9.463l1.63,3.37
					c1-0.514,10.299-4.997,23.528-10.572l-1.446-3.453c-10.272,3.315-9.985-1.865-19.711-24.024
					c17.67-7.45,11.485-4.955,28.985-11.652c9.297,25.463,11.994,26.834,2.583,30.904l1.347,3.493
					c12.064-4.604,22.78-8.129,24.055-8.508l-1.13-3.569c-10.648,2.533-8.442,1.073-27.492-55.243
					c-1.954-5.739,2.324-6.943,7.158-8.954l-1.131-3.569c-1.005,0.302-12.902,4.12-28.389,10.028l1.347,3.493
					c11.388-3.817,10.07,0.209,20.044,27.515c-17.685,6.768-11.423,4.242-29.27,11.767c-13.399-30.481-15.058-28.177-4.409-33.794
					l-1.446-3.454c-13.865,5.848-25.665,11.443-27.196,12.225L1803.681,312.096z"/>
				<path d="M1746.383,343.648c12.213-6.894,9.281-4.973,40.15,46.814c2.203,3.707,1.503,6.337-4.849,10.531l1.963,3.188
					c12.699-7.705,6.81-4.263,24.52-14.384l-1.813-3.275c-11.545,5.386-8.432,4.509-38.762-48.364
					c-2.97-5.157,1.218-7.221,6.149-10.552l-1.813-3.276c-19.107,10.914-13.261,7.479-27.507,16.129L1746.383,343.648z"/>
				<path d="M1725.042,444.328c1-0.762,10.479-7.851,22.886-16.602l-2.149-3.065c-10.73,6.371-8.693,4.465-35.16-32.373
					c-6.406-8.898-12.099-18.635-3.721-24.544c3.079-2.171,6.526-3.178,9.953-1.578c0.93,2.896,0.419,6.051,1.364,9.728
					c2.42,9.409,13.156,6.627,12.845-0.195c-0.679-14.747-23.923-21.355-33.354-3.858c-7.94,15.03,3.235,24.632,28.409,58.842
					c2.059,2.798,3.088,5.458-3.324,10.654L1725.042,444.328z"/>
				<path d="M1606.559,449.995c8.573-7.019,13.937-2.508,52.09,5.319c-1.61,27.18,4.92,34.005-4.472,42.445l2.483,2.802
					c3.721-3.317,16.359-14.336,18.396-16.016l-2.43-2.848c-4.837,3.33-9.991,8.084-9.943-15.784
					c-0.001-7.82,0.723-15.882,1.137-19.212l0.729-0.598c18.957,22.842,22.218,23.024,14.034,30.561l2.411,2.863
					c5.501-4.708,18.412-15.259,20.751-17.074l-2.341-2.921c-9.441,6.38-7.806,3.919-45.212-42.032
					c-3.84-4.713-0.291-7.314,3.097-10.514l-2.342-2.922c-2.297,1.786-16.512,13.402-22.156,18.229l2.412,2.864
					c9.275-7.283,9.777-2.633,28.033,19.363l-0.949,0.778c-14.263-2.579-29.507-6.134-43.741-10.827
					c-8.748,7.602-5.64,4.867-14.476,12.727L1606.559,449.995z"/>
				<path d="M1562.985,515.931c-1.407-2.857-5.975-15.443-4.278-19.143c2.219-4.907,9.399-10.886,11.199-12.208
					c5.521-4.005,4.675-2.405,44.706,40.121c2.39,2.54,3.723,5.387-1.925,11.209l2.579,2.714c4.901-4.654,6.479-6.209,20.188-18.914
					l-2.536-2.754c-9.243,7.214-7.814,4.52-47.926-38.608c-4.029-4.328-1.318-6.915,2.308-10.926l-2.536-2.754
					c-14.696,13.65-18.288,16.958-38.688,36.657l14.485,16.947L1562.985,515.931z"/>
				<path d="M1462.942,590.414c11.627-11.397,11.978-11.484,31.972,4.078c29.357,22.936,33.754,24.154,31.247,27.53l3.509,1.764
					l7.119-7.295c-2.972-3.251-6.609-11.009-27.106-52.571c32.693,15.776,21.444,10.319,53.38,25.901
					c9.789-9.824,6.342-6.379,15.947-15.938l-2.637-2.657c-9.82,8.777-13.062,1.65-42.748-28.065
					c-9.428-9.431-10.906-12.166-4.385-20.033l-2.637-2.658c-11.663,11.618-7.459,7.413-19.318,19.32l2.659,2.636
					c10.754-9.734,13.403-3.022,52.465,35.949l-0.429,0.43c-37.68-18.736-24.532-12.24-61.516-30.382l-1.67,1.691
					c17.986,37.331,11.797,24.542,29.51,60.954l-0.492,0.504c-42.705-41.754-46.334-39.532-36.457-50.275l-2.673-2.621
					l-29.252,29.982L1462.942,590.414z"/>
				<path d="M1547.587,652.759l-16.157-15.752l-2.962,2.343c5.725,8.567-6.532,17.481-31.783,43.434
					c3.262-16.826,3.102-41.23,30.111-50.206c-1.897-1.782-3.163-2.565-2.118-3.638l-5.059-0.163
					c-2.489,2.062-1.734,2.879-14.196,5.015c-3.632,0.621-53.068,7.86-59.24,5.768c-5.122-1.744-7.175-6.475-6.581-11.923
					l-3.799-0.068c-1.984,12.687,8.093,26.501,15.448,35.986l3.858-1.469c-12.866-17.397-5.486-16.012,53.844-26.722
					c-26.758,12.595-21.373,43.109-24.851,61.016l2.907,2.831c47.318-48.5,47.761-52.984,57.957-43.779L1547.587,652.759z"/>
				<path d="M1598.571,704.289c-5.581-15.248-23.738-24.872-44.138-15.024c-17.169,8.313-31.524,30.086-24.91,49.113
					c5.643,16.26,24.894,25.347,44.51,15.538C1591.715,745.062,1605.442,723.067,1598.571,704.289z M1582.503,693.249
					c29.915,9.817-9.374,65.594-36.608,56.603C1515.428,739.815,1555.492,684.411,1582.503,693.249z"/>
				<path d="M1658.63,760.171c-4.336-4.605-11.475-10.7-23.095-21.676l-2.572,2.72c5.825,6.516,4.573,8.49,1.935,11.307
					c-43.304,46.193-38.4,45.344-47.953,37.858l-2.572,2.721c8.992,8.443,13.055,12.284,21.41,19.948l2.532-2.758
					c-9.207-8.965-5.533-8.569,12.526-28.049c3.71,3.452,18.474,20.455,35.487,8.044
					C1665.112,783.887,1669.691,771.91,1658.63,760.171z M1634.776,786.441c-4.215-1.01-7.294-4.277-10.815-7.563l22.487-24.239
					c4.791,4.467,13.627,10.293,7.212,21.073C1649.272,783.08,1642.591,788.304,1634.776,786.441z"/>
				<path d="M1666.66,825.25c-9.956,15.09-10.576,33.403,3.252,45.484c-10.099,15.354-0.828,27.18,16.482,33.586l2.498-3.334
					c-3.438-1.715-5.324-2.98-8.311-5.249c-4.527-3.47-5.318-12.804-0.363-19.301c23.537,7.205,45.268-13.618,49.508-35.632
					C1736.777,803.911,1690.967,788.404,1666.66,825.25z M1691.799,815.534c13.764-8.694,26.734-5.212,30.154,5.542
					c5.612,17.26-19.136,55.158-41.922,49.916C1655.106,865.341,1670.676,828.919,1691.799,815.534z"/>
				<path d="M1785.927,942.867c-8.676-5.203-8.224-10.824-9.8-43.867c16.792,3.981,25.988-7.023,26.716-17.101
					c0.957-13.906-12.477-17.993-35.254-33.643l-2.117,3.087c8.859,7.144,7.879,3.63-26.732,55.441
					c-3.286,4.933-6.513,2.78-11.355,0.094l-2.118,3.088c8.282,5.596,16.05,10.826,24.988,16.376l1.987-3.173
					c-10.451-7.057-7.07-7.057,8.118-30.579c1.475,0.986,2.62,1.694,5.815,3.707c0.943,21.704,0.789,18.409,1.218,40.414
					c8.585,4.995,15.749,8.924,16.749,9.448L1785.927,942.867z M1770.741,893.452c-2.593-1.074-5.061-2.783-7.919-4.671
					l17.401-26.928c6.472,4.153,11.358,6.201,12.311,12.398C1793.986,883.826,1782.922,898.49,1770.741,893.452z"/>
				<path d="M1859.505,938.838c-6.905-9.806-15.653-14.214-16.763-22.581c-2.256-17.238,27.858-27.174,22.779,12.438l3.481,1.29
					l8.233-23.437l-3.231-1.197l-2.94,2.736c-11.328-18.258-30.271-12.236-36.453,0.787c-7.244,15.225,2.124,22.507,12.984,33.767
					c11.884,12.148-1.794,34.921-18.069,21.514c-7.623-6.212-8.084-17.177-6.217-26.832l-3.531-1.694l-10.432,23.42l3.665,1.757
					l3.605-2.577C1837.815,990.532,1876.257,962.068,1859.505,938.838z"/>
				<path d="M1955.375,925.542c-9.008-0.705-31.428-4.594-51.37-10.278l-5.526,19.536l3.04,0.866
					c8.794-16.171,14.67-12.933,22.756-11.102c-14.532,67.407-9.467,65.478-25.555,62.831l-0.892,3.636
					c10.425,2.75,24.537,5.252,34.231,6.848l0.572-3.7c-0.934-0.198-9.261-2.249-10.203-5.706
					c-0.629-2.231-1.041,1.715,10.811-62.119c9.207,2.001,10.907,0.432,14.24,9.189c1.322,3.473,2.278,7.398,2.486,9.786
					c1.533,0.207,2.232,0.313,3.077,0.382L1955.375,925.542z"/>
				<path d="M2041.139,923.386c-14.084,2.131-17.705,2.457-24.307,3.028l0.321,3.73c12.72,0.003,11.292,3.889,16.399,46.556
					c3.017,24.786-35.247,30.275-35.774,2.417c-0.936-45.885-3.532-47.548,7.12-48.147l-0.174-3.74
					c-5.574,0.313-16.405,0.492-24.867,0.138l-0.132,3.741c1.814,0.258,4.032,0.825,5.491,1.93c5.835,4.409-1.102,46.97,3.599,57.71
					c5.437,12.305,22.388,15.273,34.772,10.744c35.676-13.217-6.633-69.505,18.162-74.412L2041.139,923.386z"/>
				<path d="M2117.729,899.758c-13.997,6.168-8.841,4.032-20.4,8.528l1.322,3.503c8.435-2.286,15.295-7.781,12.965,54.497
					c-2.522-3.111-34.793-43.416-32.199-46.58c0.744-0.942,2.566-1.787,6.02-3.278l-1.155-3.561
					c-3.934,1.336-11.647,3.698-23.718,6.585l0.853,3.645c11.508-1.693,13.286,14.993,50.178,60.525l4.147-1.402
					c1.981-56.511-6.34-74.144,3.57-79.069L2117.729,899.758z"/>
				<path d="M2202.296,840.176c-0.82,0.917-8.227,8.048-15.786,14.73l2.46,2.822c8.087-5.881,9.383-9.017,33.703,42.444
					c-15.583-9.568-34.455-22.633-48.664-33.537c-0.186,0.158-3.111,2.306-3.308,2.452c6.504,15.991,13.624,36.102,19.041,54.722
					c-45.939-39.799-39.739-36.328-32.474-41.955l-2.063-3.124c-4.69,3.167-11.448,7.351-20.764,12.49l1.797,3.284
					c10.778-4.708,12.95,8.571,59.03,48.597l3.866-2.599c-5.199-19.63-12.088-40.563-18.572-57.456
					c15.186,11.811,33.592,24.54,49.416,34.405c1.521-1.235,2.173-1.741,3.712-3.124c-23.18-53.747-36.832-62.804-28.737-71.518
					L2202.296,840.176z"/>
				<path d="M2312.651,810.614c-4.01,6.872-3.541,9.015-47.801,7.304c-12.944-30.562-15.954-29.686-11.914-38.45l-3.254-1.851
					c-1.262,2.314-5.449,9.464-11.723,18.874l3.108,2.087c6.061-8.083,8.283-6.678,19.098,19.093
					c-31.406-1.917-28.79-4.782-23.845-12.19l-3.049-2.172c-1.811,2.476-8.817,12.296-17.034,21.689l2.836,2.444
					c7.89-7.462,8.32-2.83,43.969-0.006c14.577,37.292,10.563,39.139,6.561,44.519l2.832,2.45
					c6.894-7.923,13.066-15.763,17.419-21.705l-3.006-2.232c-9.039,11.419-8.927,4.599-18.715-22.686
					c29.594,1.783,34.369-0.6,26.304,12.134l3.083,2.125c4.353-6.52,11.047-16.22,18.399-29.599L2312.651,810.614z"/>
				<path d="M2279.043,705.702c-0.338,1.507-3.132,11.33-6.034,19.844l3.545,1.202c4.247-8.66,3.437-13.168,29.853,16.802
					c-41.343,5.106-36.49,1.636-33.571-6.422l-3.5-1.33c-0.39,1.001-4.958,13.146-10.028,23.385l3.375,1.621
					c4.059-6.39,8.299-5.242,25.846-5.856c27.599-1.033,17.077-3.116,40.17,5.84c5.384,2.08,4.532,5.969,1.886,13.264l3.448,1.461
					c5.381-12.273,9.854-25.971,12.118-32.659l-3.568-1.135c-5.04,13.509-8.948,9.263-24.063,3.95
					c-6.8-2.394-5.573-2.445-22.165-18.968c-8.049-7.909-13.113-12.95-13.736-17.521c-0.104-0.845-0.085-1.677,0.043-2.522
					L2279.043,705.702z"/>
				<path d="M2340.369,641.943c22.37,9.295,18.72,18.976,14.802,44.417c-19.791-18.563-44.573-36.92-64.351-48.292l-1.844-0.059
					c-0.249,14.449-3.31,37.933-4.757,44.408c12.238,3.365,7.925,2.164,20.426,5.681l0.618-3.09
					c-3.467-1.897-6.74-4.331-9.699-7.231c-6.653-6.358-4.888-6.467-3.057-28.195c23.168,15.164,44.472,32.593,62.504,51.008
					l1.811,0.355c4.237-21.365,6.587-44.742,6.917-59.305c-14.292-2.015-9.315-1.333-23.297-3.185L2340.369,641.943z"/>
			</g>
			<g>
				<path d="M293.656,726.751c-1.458-7.465-3.208-11.704,64.418-45.546l-0.542-3.399c-73.974-11.789-73.945-16.221-75.337-24.471
					l-3.733,0.291c0.505,5.977,1.085,13.812,2.86,27.122l3.711-0.494c-1.184-13.645,3.425-12.191,21.281-7.958
					c0.537,3.953,2.103,15.934,3.571,23.873c-18.721,10.33-19.066,14.153-22.304,1.071l-3.691,0.629
					c0.134,1,2.312,13.786,6.125,29.76L293.656,726.751z M311.195,673.381c11.073,2.381,20.466,4.128,30.092,5.801
					c-8.68,4.382-18.619,9.683-27.098,14.446C312.208,681.221,312.851,685.545,311.195,673.381z"/>
				<path d="M347.489,775.289l0.437-0.185c6.251,8.421,16.139,10.501,23.891,6.18c15.618-8.708,5.667-22.517-2.839-48.618
					l-3.572,1.12c1.563,7.131-1.411,8.913-4.271,9.885c-59.687,20.241-55.016,21.993-60.096,9.921l-3.574,1.117
					c4.519,14.234,8.066,25.892,13.171,35.342c9.464,17.531,26.055,16.531,33.891,6.423
					C348.335,791.529,350.038,784.408,347.489,775.289z M343.395,760.202l26.991-10.024c2.576,5.971,9.768,17.63-7.878,23.343
					C348.46,778.081,345.763,766.253,343.395,760.202z M312.464,784.139c-1.647-3.283-2.185-6.814-1.739-9.003
					c0.839-4.057,1.738-3.433,28.468-13.373c3.926,8.722,6.141,14.002,3.63,19.839C339.053,790.688,320.164,798.984,312.464,784.139
					z"/>
				<path d="M389.428,879.529l-1.146-4.036c-19.647,8.314-35.369-8.436-29.46-25.717c6.172-17.459,36.99-35.35,51.991-26.153
					c11.296,6.552,4.061,21.226-3.977,31.512c1.448,1.659,1.837,2.122,2.477,2.797l19.526-18.182
					c-0.461-0.501-1.693-1.923-2.182-2.483l-3.821,1.076c-2.085-32.783-47.984-30.862-67.219-5.731
					C336.745,857.273,359.019,891.589,389.428,879.529z"/>
				<path d="M472.848,879.475c-6.603-6.892-15.829-12.614-23.946-19.845l-2.486,2.799c3.464,3.892,4.591,6.64,1.328,10.541
					c-38.651,46.171-36.37,48.691-46.357,39.528l-2.49,2.796c19.204,17.055,46.037,41.773,69.877,19.343
					C481.57,922.509,489.367,896.706,472.848,879.475z M425.415,931.078c-8.623-8.054-5.856-6.974,33.333-57.342
					c5.789,3.962,19.729,11.175,12.445,34.226C464.126,930.327,443.063,947.54,425.415,931.078z"/>
				<path d="M551.232,970.05c-0.827,1.458-8.984,13.573-14.902,13.434c-5.897-0.025-17.115-4.01-19.343-5.194
					c-6.837-3.318-4.036-6.488,5.055-32.072c9.768,3.351,17.135,3.575,14.148,17.969l3.555,1.002l7.896-28.237l-3.245-0.913
					c-5.427,13.524-11.577,9.3-20.903,6.105l9.98-28.017c16.559,5.655,17.513,4.499,19.797,12.107
					c0.917,3.079,1.438,6.474,1.357,8.83l3.232,0.817l4.311-17.512c-13.996-3.54-28.446-7.979-43.346-14.478l-1.477,3.44
					c9.918,5.37,8.108,2.763-14.419,59.925c-2.074,5.31-6.043,4.098-12.146,1.954l-1.477,3.441
					c19.069,8.234,41.333,15.369,59.074,19.368l6.324-21.17C552.665,970.393,552.097,970.274,551.232,970.05z"/>
				<path d="M639.366,927.126c-17.391,0.19-35.814-1.253-46.948-2.97l-0.514,3.708c11.032,2.74,8.725-0.087,1.823,61.815
					c-0.645,5.863-4.922,5.395-11.076,4.886l-0.515,3.709c11.552,1.64,20.926,2.388,31.993,3.101l0.206-3.739
					c-13.036-1.347-10.013-4.171-7.664-33.137c10.654,0.852,18.341-0.869,18.895,13.98c0.967,0.032,1.71,0.037,3.679,0.066
					l0.543-29.42c-1.872-0.026-2.514-0.029-3.394-0.059c-1.5,13.95-9.122,11.948-19.37,11.124l2.451-29.957
					c18.363,1.408,18.835-0.26,23.119,7.061c1.687,2.879,3.048,6.274,3.577,8.588l3.365-0.036L639.366,927.126z"/>
				<path d="M733.733,955.971c-13.597,3.237-15.223,3.731-28.976,6.209l0.668,3.791c10.378-1.14,11.786,0.755,12.82,5.823
					c3.036,14.906,3.852,14.409-2.095,18.177c-37.014,22.331-50.778-59.033-21.519-65.18c10.75-2.44,18.895,9.45,23.573,19.483
					l3.664-0.873l-6.197-25.41l-3.339,0.8l-0.978,3.873c-21.063-9.52-43.739,7.716-43.582,37.112
					c0.185,33.869,31.527,52.078,64.07,26.402c-7.074-23.324-5.447-23.262,2.826-26.473L733.733,955.971z"/>
				<path d="M839.275,948.684c-11.411,4.941-8.8,3.091-34.107-50.985c-1.456-3.12-1.944-6.028,4.629-9.56l-1.639-3.366
					c-11.091,5.36-22.776,10.496-23.488,10.756l1.46,3.447c10.229-3.492,9.958,1.703,19.759,23.839
					c-10.998,4.889-20.508,8.711-28.929,11.778c-9.788-26.448-11.874-26.478-2.692-30.816l-1.363-3.487
					c-3.949,1.603-14.222,5.377-24.078,8.555l1.15,3.563c10.695-2.423,8.473-1.021,27.832,55.209
					c2.011,5.787-2.328,6.84-7.143,8.874l1.15,3.563c12.089-3.909,23.812-8.247,28.322-10.068l-1.363-3.487
					c-11.384,4.205-10.511-1.352-20.191-27.503c8.075-2.942,17.839-6.838,29.207-11.891c13.493,30.43,15.136,28.116,4.591,33.883
					l1.46,3.448c1-0.374,14.231-6.182,27.069-12.385L839.275,948.684z"/>
				<path d="M896.487,917.063c-12.079,7.178-9.663,4.343-40.248-46.765c-2.645-4.424-0.448-6.835,4.841-10.516l-1.968-3.184
					c-4.443,2.795-13.316,8.133-24.521,14.381l1.82,3.272c11.605-5.252,8.45-4.465,38.913,48.371
					c3.008,5.186-1.231,7.179-6.181,10.479l1.82,3.272c11.786-6.577,21.928-12.63,27.494-16.125L896.487,917.063z"/>
				<path d="M917.639,816.325c-8.589,6.495-17.517,12.948-22.842,16.672l2.154,3.062c5.355-3.082,7.445-4.41,11.658-0.067
					c1.664,1.713,28.593,37.245,30.963,45.754c2.854,10.251-7.88,15.409-13.611,12.75c-0.935-2.894-0.469-6.096-1.4-9.749
					c-2.409-9.404-13.073-6.605-12.802,0.263c0.67,15.294,24.44,20.78,33.327,3.78c7.907-15.192-3.261-24.543-28.47-58.763
					c-2.055-2.782-3.091-5.442,3.278-10.712L917.639,816.325z"/>
				<path d="M1036.126,810.551c-8.528,6.949-13.794,2.613-52.09-5.258c1.518-26.984-4.9-34.257,4.408-42.463l-2.486-2.799
					c-11.224,9.909-7.319,6.497-18.375,16.039l2.434,2.845c5.278-3.843,9.867-7.33,9.977,15.792
					c0.013,7.818-0.742,15.83-1.137,19.179l-0.722,0.606c-18.972-22.8-22.276-23.042-14.063-30.53l-2.415-2.86
					c-12.387,10.371-7.937,6.704-20.729,17.095l2.345,2.918c9.412-6.425,7.812-3.91,45.264,41.972
					c3.864,4.724,0.244,7.26-3.081,10.518l2.345,2.918c13.365-10.857,8.653-6.968,22.131-18.25l-2.416-2.861
					c-9.317,7.245-9.765,2.652-28.066-19.34l0.94-0.789c13.658,2.463,29.828,6.181,43.77,10.798
					c3.572-3.059,5.724-4.995,14.46-12.739L1036.126,810.551z"/>
				<path d="M1079.618,744.586c1.419,2.863,5.983,15.431,4.284,19.13c-1.124,2.442-3.449,5.179-5.733,7.461
					c-11.237,11.099-6.737,10.753-50.198-35.337c-2.392-2.538-3.726-5.382,1.927-11.191l-2.581-2.712
					c-12.331,11.672-8.043,7.649-20.179,18.918l2.539,2.751c9.241-7.213,7.82-4.511,47.973,38.572
					c4.038,4.327,1.307,6.899-2.307,10.918l2.539,2.752c18.246-16.934,24.484-22.958,38.647-36.675l-14.504-16.941L1079.618,744.586
					z"/>
				<path d="M1180.415,669.238c-11.645,11.417-12.012,11.48-32.577-3.448c-30.235-22.033-34.73-23.155-32.236-26.516l-3.598-1.673
					l-6.255,6.412c2.974,3.253,6.612,11.015,27.125,52.563c-32.765-15.798-21.376-10.279-53.387-25.873l-15.941,15.943l2.639,2.656
					c9.813-8.787,13.056-1.667,42.758,28.036c9.418,9.419,10.932,12.17,4.405,20.031l2.639,2.656
					c11.871-11.847,7.721-7.691,19.294-19.325l-2.66-2.635c-10.729,9.742-13.401,3.025-52.476-35.923l0.429-0.43
					c37.689,18.718,24.541,12.228,61.53,30.358l1.67-1.691c-18.044-37.397-11.745-24.398-29.537-60.944l0.492-0.504
					c42.718,41.744,46.337,39.522,36.474,50.264l2.674,2.62l30.141-30.911L1180.415,669.238z"/>
				<path d="M1092.876,608.054l16.779,16.323l2.897-2.408c-6.233-9.153,4.524-16.533,31.187-44.004
					c-3.087,16.095-3.1,41.52-29.378,50.905c0.346,0.325,2.663,2.391,2.769,2.852c0.158,1-1.71,0.682,4.972,0.765
					c4.157-4.424,15.284-5.776,32.27-8.108c24.102-3.268,48.534-10.745,47.931,7.567l3.761-0.01
					c0.681-7.477-2.991-12.991-10.087-27.389c-0.334-0.341-5.497-5.617-7.817-7.987l-3.756,1.53
					c14.755,15.909,7.752,15.649-52.477,27.716c25.232-12.636,20.386-40.663,24.376-61.453l-2.911-2.827
					c-47.248,48.557-47.71,53.048-57.9,43.853L1092.876,608.054z"/>
				<path d="M1041.83,556.516c5.582,15.258,23.76,24.896,44.156,15.034c17.162-8.328,31.497-30.108,24.894-49.119
					c-5.636-16.247-24.861-25.314-44.476-15.529C1048.722,515.735,1034.954,537.722,1041.83,556.516z M1099.827,543.109
					c-28.806,44.011-67.065,23.725-47.255-7.36C1081.017,490.951,1120.249,512.032,1099.827,543.109z"/>
				<path d="M981.823,500.525c4.408,4.658,11.424,10.701,23.059,21.715l2.576-2.716c-5.82-6.517-4.557-8.505-1.916-11.312
					c43.391-46.117,38.477-45.271,48.016-37.774l2.576-2.717c-13.054-12.299-8.472-8.011-21.36-19.98l-2.537,2.754
					c9.175,8.987,5.514,8.578-12.585,28.028c-5.783-5.408-8.215-7.985-13.153-10.272
					C987.097,459.345,964.004,481.567,981.823,500.525z M1005.726,474.299c4.228,1,7.284,4.29,10.801,7.58l-22.532,24.197
					c-4.775-4.492-13.617-10.299-7.166-21.092C991.241,477.613,997.911,472.427,1005.726,474.299z"/>
				<path d="M973.918,435.433c9.859-14.88,10.735-33.232-3.229-45.501c10.096-15.342,0.609-27.53-16.57-33.604l-2.494,3.337
					c3.49,1.683,5.366,2.961,8.339,5.25c4.417,3.392,5.509,12.568,0.396,19.311c-23.364-7.264-45.284,13.573-49.476,35.642
					C903.843,456.681,949.462,472.285,973.918,435.433z M948.77,445.125c-14.781,9.289-26.994,4.329-30.136-5.521
					c-6.616-21.008,28.184-64.829,49.365-46.161C982.994,406.958,963.995,435.504,948.77,445.125z"/>
				<path d="M854.28,318.055c8.788,5.003,8.303,11.268,10.066,43.798c-23.267-5.289-36.054,19.505-18.141,33.089
					c6.099,4.794,14.016,8.941,26.834,17.624l2.108-3.094c-8.768-7.237-8.011-3.386,26.556-55.539
					c3.267-4.944,6.556-2.852,11.357-0.114l2.108-3.094c-12.27-8.399-21.361-13.998-25.083-16.322l-1.972,3.183
					c10.503,7.049,7.132,6.997-7.964,30.596l-5.847-3.659c-0.753-14.686-1.163-25.719-1.406-40.448
					c-9.866-5.535-12.643-7.137-16.851-9.321L854.28,318.055z M869.75,367.386c2.604,1.052,5.054,2.789,7.952,4.613l-17.294,26.997
					c-6.203-3.897-11.354-6.045-12.349-12.309C846.578,377.301,857.354,362.402,869.75,367.386z"/>
				<path d="M780.715,322.589c3.491,4.946,7.444,8.367,10.658,11.726c21.756,23.128-22.074,45.196-16.576-1.518l-3.498-1.238
					l-7.998,23.516l3.245,1.147l2.911-2.766c11.118,17.913,30.1,12.244,36.365-1.114c6.685-14.293-0.884-21.583-13.244-33.646
					c-10.165-10.209-2.379-30.703,13.749-24.153c11.134,4.728,12.819,17.208,10.591,29.291l3.567,1.637l10.274-23.482l-3.716-1.707
					l-3.589,2.589C802.272,270.636,763.588,299.465,780.715,322.589z"/>
				<path d="M684.768,336.621c16.719,2.037,35.492,5.31,51.662,9.963l5.349-19.585c-1.06-0.319-1.786-0.493-3.056-0.813
					c-8.597,16.209-14.731,13.067-22.709,11.267c14.111-67.752,9.014-65.414,25.086-63.042l0.863-3.643
					c-16.083-3.634-22.994-4.843-34.143-6.564l-0.556,3.703c0.934,0.181,9.242,2.148,10.19,5.642
					c0.639,2.224,1.029-1.723-10.453,62.178c-9.657-2.061-10.881-0.417-14.338-9.162c-1.342-3.452-2.316-7.359-2.533-9.743
					l-3.084-0.375L684.768,336.621z"/>
				<path d="M599.009,338.734c7.898-1.464,21.951-2.933,24.165-3.057l-0.317-3.73c-12.668,0.251-11.328-4.42-16.358-46.58
					c-2.998-24.647,35.307-30.289,35.794-2.356c0.864,45.724,3.411,47.572-7.194,48.161l0.168,3.74
					c12.993-0.535,18.674-0.277,24.911-0.131l0.133-3.741c-4.153-0.513-7.907-2.151-7.868-7.311
					c0.464-45.745,2.786-52.159-7.058-59.749c-12.99-9.95-42.887-7.129-43.856,16.842c-0.753,18.98,9.963,46.902,1.949,52.287
					c-1.238,0.807-2.894,1.439-5.088,1.933L599.009,338.734z"/>
				<path d="M522.562,362.582c12.902-5.898,16.751-7.261,20.344-8.632l-1.334-3.498c-9.389,2.473-14.955,6.691-13.153-54.45
					c18.713,22.923,31.122,41.656,32.172,43.509c1.262,2.267,1.158,3.544-5.839,6.226l1.167,3.557
					c15.206-4.698,17.93-5.254,23.688-6.637l-0.864-3.643c-11.56,1.711-13.43-15.138-50.368-60.371l-4.138,1.432
					c-1.956,58.777,6.91,73.863-3.27,79.119L522.562,362.582z"/>
				<path d="M438.27,422.461c1.093-1.144,9.264-9.28,15.685-14.824l-2.472-2.811c-8.025,5.542-8.995,9.947-33.857-42.278
					c16.61,10.131,35.474,23.131,48.807,33.352l3.277-2.492c-6.634-16.086-13.417-35.137-19.279-54.67
					c46.127,39.675,39.901,36.202,32.656,41.854l2.075,3.116c7.798-5.209,16.402-10.298,20.692-12.595l-1.809-3.277
					c-10.737,4.713-12.842-8.262-59.189-48.329l-3.876,2.584c4.747,17.698,11.889,39.627,18.809,57.391
					c-15.74-12.123-32.702-23.698-49.56-34.21l-3.672,3.173c22.529,51.901,37.035,62.536,29.043,71.393L438.27,422.461z"/>
				<path d="M328.029,452.497c4.13-6.663,2.952-9.156,47.761-7.539c12.088,28.214,16.349,30.011,12.143,38.411l3.263,1.835
					c5.642-9.967,8.586-14.344,11.585-18.95l-3.118-2.072c-5.475,7.466-8.113,7.923-19.135-18.962
					c31.713,1.828,28.613,4.65,23.872,12.056l3.06,2.157c5.374-7.726,10.836-14.584,16.913-21.769l-2.847-2.431
					c-7.831,7.573-9.149,2.748-43.984,0.19c-14.613-36.884-10.793-38.881-6.751-44.48l-2.842-2.437
					c-5.141,6.08-8.489,9.935-17.315,21.796l3.016,2.218c9.378-11.696,8.89-3.948,18.837,22.608
					c-28.297-1.581-34.984,0.873-26.361-12.008l-3.093-2.11c-5.85,8.206-13.16,20.629-18.282,29.675L328.029,452.497z"/>
				<path d="M362.184,557.256c2.016-7.407,3.422-12.555,5.907-19.891l-3.551-1.185c-4.283,8.488-3.067,13.53-29.905-16.646
					c41.3-4.956,36.45-2.202,33.589,6.251l3.506,1.312c4.44-11.846,9.233-22.119,9.901-23.438l-3.383-1.604
					c-4.176,6.918-7.244,4.861-40.29,6.887c-10.296,0.66-9.935-0.511-25.729-6.546c-6.078-2.314-3.964-7.009-1.922-13.24
					l-3.455-1.443c-4.503,10.943-8.458,21.399-11.926,32.714l3.573,1.118c4.546-13.82,9.858-8.981,24.001-4.075
					c6.762,2.344,6.601,3.38,16.539,13.245c7.674,7.49,11.334,10.995,14.192,14.205c4.289,4.781,5.999,8.052,5.329,11.394
					L362.184,557.256z"/>
				<path d="M301.116,621.233c-22.09-9.068-18.831-17.436-15.041-44.331c20.513,18.961,43.762,35.941,64.539,48.194l1.844,0.06
					c0.754-17.179,1.715-27.32,4.656-44.575c-12.285-3.323-7.938-2.133-20.492-5.608l-0.534,3.107
					c18.438,9.962,14.358,15.95,12.801,35.399c-21.921-14.067-44.383-32.418-62.707-50.794l-1.813-0.348
					c-1.957,8.489-5.498,33.135-6.65,59.197c14.274,1.97,9.286,1.296,23.246,3.135L301.116,621.233z"/>
			</g>
			<g>
				<g>
					<path d="M115.889,568.352c-2.219,11.279-13.446,7.101-74.641,24.795L41,597.073c58.546,25.058,69.959,22.196,71.159,34.388
						l3.744,0c-0.051-7.523-0.149-1.828,0.449-22.962l-3.741-0.163c-0.974,10.915-4.147,10.66-22.261,3.765
						c0.217-7.642-0.051-2.54,1.208-22.423c21.654-5.121,21.685-6.716,21.934,4.069l3.735,0.266
						c0.395-6.318,1.894-21.601,2.379-25.214L115.889,568.352z M85.705,610.356c-9.172-3.41-18.61-7.106-28.543-11.219
						c9.309-2.73,20.209-5.734,29.612-8.156C85.646,608.793,85.879,604.248,85.705,610.356z"/>
					<path d="M90.17,505.769l-0.463-0.107c-0.178-22.841-29.364-30.152-34.726-2.747c-4.624,22.518-3.677,17.722-5.794,30.258
						l3.693,0.616c2.095-8.054,5.545-8.218,8.518-7.675c62.009,11.306,58.581,8.114,57.854,19.055l3.694,0.614
						c2.672-15.813,4.719-20.82,5.755-30.485C131.336,490.718,99.624,481.114,90.17,505.769z M86.634,508.061
						c0.577,3.481-0.182,6.318-1.436,12.363l-28.226-5.682c1.29-7.553,1.689-13.711,6.965-16.568
						C70.231,494.791,85.094,498.245,86.634,508.061z M123.928,518.262c-1.324,12.695-9.644,8.023-34.336,3.046
						c1.095-7.224,1.707-14.258,8.048-17.731C106.044,498.992,125.623,504.509,123.928,518.262z"/>
					<path d="M142.859,414.146l-3.056,2.304c13.536,11.642,11.711,26.27-0.319,32.039c-21.028,10.532-67.824-11.755-54.098-34.293
						c3.588-6.04,12.55-9.611,28.231-6.131l1.52-3.535l-24.6-10.335l-1.555,3.613l2.502,3.258
						c-6.548,4.316-11.109,10.163-12.86,18.016c-9.007,38.032,58.186,59.072,73.64,26.828
						C156.484,436.828,154.673,425.154,142.859,414.146z"/>
					<path d="M113.654,346.679c-6.005,11.144-4.127,8.159-8.698,17.096l3.336,1.698c4.311-6.926,7.461-6.33,10.434-4.757
						c54.099,28.573,54.426,25.828,49.42,35.615l3.338,1.696c10.45-20.125,27.377-40.372,7.685-63.114
						C168.57,322.663,137.617,302.823,113.654,346.679z M182.807,366.721c-1.47,5.822-5.32,10.028-7.433,10.885
						c-3.693,1.511-3.191,0.884-57.262-28.963c1.857-3.717,3.325-6.713,5.001-9.232C141.21,313.636,188.241,344.353,182.807,366.721
						z"/>
					<path d="M231.376,271.962c1.46,2.191,6.111,11.38,6.615,15.189c0.47,3.188-2.736,7.35-5.673,10.875
						c-9.366,11.24-7.145,10.06-33.06-10.556c5.978-7.56,9.137-14.55,21.193-5.7l2.173-2.574l-22.24-19.106l-2.29,2.711
						c9.861,10.325,4.172,13.893-2.223,21.979l-23.283-18.505c3.166-4.008,8.598-11.065,12.541-14.603
						c3.325-2.96,12.654-1.265,16.85,1.003l2.389-2.654l-13.472-11.99c-11.894,13.218-23.605,27.811-33.97,41.813l3.008,2.228
						c8.595-9.867,5.64-8.047,54.215,29.151c4.507,3.465,2.724,6.402-0.103,10.931l3.009,2.229
						c9.824-13.3,19.597-25.359,32.039-39.158l-15.561-15.66L231.376,271.962z"/>
					<path d="M255.919,175.064c-15.199,12.662-26.581,23.366-40.308,36.785l2.643,2.651c10.012-8.32,6.659-7.231,49.485,37.094
						c4.194,4.355,1.34,6.834-1.936,10.59l2.644,2.651c11.608-11.348,7.514-7.459,19.192-18.194l-2.509-2.779
						c-8.411,7.031-8.813,3.278-28.573-17.942c7.585-6.956,11.898-13.489,22.38-2.786l2.553-2.196l-19.216-22.285l-2.687,2.313
						c8.128,11.083,1.786,14.67-5.979,21.791l-20.498-21.984c9.956-9.138,11.259-10.497,15.036-12.989
						c3.883-2.4,13.2,1.126,17.04,3.982c1.363-1.172,1.963-1.693,2.71-2.316L255.919,175.064z"/>
					<path d="M356.651,154.225c-1.533,0.858-12.668,7.576-24.083,15.127l2.123,3.211c8.299-4.652,10.405-3.689,13.361,0.972
						c8.215,12.952,8.516,12.075,5.248,17.319c-8.817,13.965-23.901,8.594-35.891-2.874c-34.587-33.128-9.249-70.896,20.966-40.135
						l3.275-2.021l-14.023-22.081l-3.338,2.06l0.192,4.095c-4.269-0.098-7.721,0.579-11.42,1.991
						c-55.121,21.216,14.307,116.951,51.657,51.317c-13.73-19.636-12.831-20.313-6.107-25.667L356.651,154.225z"/>
					<path d="M452.729,140.927c-10.212,3.317-7.961,1.861-30.167-53.449c-1.279-3.179-1.59-6.219,5.991-9.402l-1.344-3.494
						c-10.196,3.871-23.163,9.369-26.716,10.979l1.509,3.426c11.33-4.232,11.122,2.565,20.101,23.81
						c-8.096,3.369-19.844,8.692-28.137,12.779c-11.403-23.442-15.237-25.658-4.879-30.726l-1.588-3.39
						c-3.497,1.591-16.888,8.138-25.837,12.901l1.747,3.311c11.227-4.896,8.909-2.846,35.897,50.191
						c2.687,5.292-0.617,6.786-4.471,9.367l1.747,3.311c7.414-3.956,19.753-10.004,22.664-11.322l-1.589-3.39
						c-9.49,3.629-8.457,1.064-21.637-26.033c8.031-3.958,19.706-9.262,27.907-12.674c13.315,31.513,14.022,28.235,5.208,33.497
						l1.509,3.427c2.928-1.332,14.414-6.214,23.429-9.624L452.729,140.927z"/>
					<path d="M506.813,123.364c-11.892,2.773-9.09,1.886-25.6-56.099c-1.187-4.145,0.325-6.511,8.242-8.966l-0.965-3.617
						c-15.286,4.157-9.493,2.486-30.085,8.812l1.151,3.562c13.608-3.09,9.967-2.78,27.745,55.521
						c1.726,5.698-2.239,6.605-7.037,8.556l1.151,3.563c18.658-5.727,12.268-3.88,26.362-7.714L506.813,123.364z"/>
					<path d="M564.486,39.573c-14.232,1.929-8.321,1.021-30.353,4.752l0.681,3.681c13.412-1.285,10.44-0.389,17.945,44.346
						c1.799,10.818,2.68,22.06-6.125,23.554c-3.175,0.649-6.384,0.134-8.69-2.696c0.22-3.775,6.034-15.432-2.098-17.899
						c-9.87-3.006-9.619,14.861,0.018,21.899c6.501,4.741,15.217,2.834,19.625-0.825c12.071-9.892,7.097-23.843,0.889-65.282
						c-0.512-3.426-0.142-6.286,8.598-7.819L564.486,39.573z"/>
					<path d="M661.169,105.745c-11.323-0.892-12.512-13.007-33.618-38.254c19.381-21.932,19.523-29.513,31.866-29.178l0.1-3.742
						c-8.247-0.262-2.732-0.226-26.105-0.189l0.063,3.743c7.157,0.541,16.672-0.373-15.133,32.946l-0.922,0.032
						c-1.349-29.629-4.05-31.846,7.768-32.721l-0.114-3.742c-15.457,0.538-9.377,0.222-28.866,1.552l0.294,3.732
						c12.196,0.113,9.134,1.27,12.931,60.374c0.38,6.091-3.551,6.046-7.635,6.757l0.294,3.733
						c17.631-1.207,11.564-0.877,25.269-1.356l-0.115-3.742c-10.51-0.069-8.433-3.952-9.732-32.533l1.195-0.042
						c11.069,12.539,18.852,23.972,25.236,36.076c9.715-0.016,5.625-0.082,17.101,0.295L661.169,105.745z"/>
					<path d="M733.382,94.311c-1.402,2.812-8.434,14.08-11.926,15.05c-4.789,1.34-13.028-0.337-14.992-0.903
						c-5.963-1.544-4.41-1.935,2.004-59.996c0.416-3.768,2.099-6.403,10.229-5.634l0.468-3.714
						c-7.012-0.939-23.391-2.596-29.223-2.987l-0.288,3.733c12.223,1.864,8.989,3.07,3.603,61.45
						c-0.533,5.724-3.59,5.521-8.789,5.69l-0.288,3.733c9.272,0.605,29.063,2.725,47.331,5.832l5.009-21.722L733.382,94.311z"/>
					<path d="M829.766,138.587c-10.393-4.169-7.99-2.939,11.831-60.226c1.131-3.279,2.893-5.621,10.998-3.125l1.274-3.52
						c-19.363-6.795-14.718-5.217-21.395-7.314c-1.959,5.186-11.378,15.385-34.036,48.29c-0.625-20.988-2.297-46.128-3.563-59.199
						c-21.846-5.256-18.664-4.5-23.066-5.404l-0.789,3.66c6.526,1.707,8.843,4.279,8.152,11.621
						c-0.377,3.974-9.79,47.851-13.526,52.067c-1.907,2.169-4.555,2.451-9.199,2.062l-0.786,3.661
						c4.804,0.978,20.66,4.774,24.022,5.707l0.95-3.622c-12.329-4.346-8.994-7.967,4.434-63.327l0.61,0.147
						c1.854,21.414,3.325,41.586,3.895,68.281l2.083,0.575c12.816-18.745,24.786-35.405,39.8-54.503l0.689,0.216
						c-18.549,56.778-15.356,58.849-28.225,55.312l-1.105,3.577c14.267,4.471,8.925,2.706,25.678,8.587L829.766,138.587z"/>
					<path d="M948.88,114.824c-11.016-6.072-6.163-3.509-24.858-13.034l-1.667,3.352c12.894,7.686,7.727,11.312-13.793,52.792
						c-1.759-22.4-4.64-44.867-8.627-67.6c-1-0.462,0.607,0.226-18.164-7.809l-1.433,3.459c14.425,7.184,5.706,17.84-8.499,50.511
						c-4.762,10.911-6.938,15.181-16.316,12.113l-1.439,3.457c17.168,7.353,11.854,4.966,23.046,10.212l1.584-3.393
						c-11.881-6.376-7.084-11.287,13.052-56.475c4.137,23.508,7.105,49.032,8.644,72.155l3.362,1.71
						c31.661-59.863,30.781-64.469,43.308-58.168L948.88,114.824z"/>
					<path d="M978.377,141.293c-23.18,6.696-38.818,39.374-27.044,60.423c13.877,24.302,51.54,13.185,62.348-18.953
						C1023.086,154.866,1000.578,134.944,978.377,141.293z M974.771,152.959c12.726-10.822,26.505-7.845,31.193,2.457
						c6.335,13.918-7.521,37.612-18.988,46.822c-11.045,8.85-25.269,9.718-30.209-1.994
						C950.927,186.488,963.811,162.255,974.771,152.959z"/>
					<path d="M1085.595,208.3c-3.184-5.233-11.906-11.408-31.216-25.58l-2.213,3.02c6.775,5.822,5.744,7.941,3.435,11.037
						c-37.844,50.799-33.201,49.175-42.983,43.465l-2.214,3.02c8.214,5.948,3.347,2.298,21.702,16.33l2.285-2.966
						c-9.281-7.553-5.807-7.625,10.256-28.798c3.836,2.932,19.664,17.955,35.577,4.948
						C1087.789,226.596,1090.661,216.665,1085.595,208.3z M1047.42,224.171l19.975-26.348c5.296,4.048,14.881,9.289,9.276,20.502
						c-1.929,3.846-4.472,7.173-7.501,9.387C1059.42,234.861,1051.815,227.531,1047.42,224.171z"/>
					<path d="M1133.614,246.912c-32.611-8.87-66.347,40.541-41.022,64.472c-10.371,14.37-3.859,25.647,11.959,32.427l2.783-3.1
						c-8.875-5.156-9.981-8.679-9.655-13.462c0.233-3.422,1.6-7.213,4.25-10.328C1143.263,330.48,1178.63,259.705,1133.614,246.912z
						 M1135.534,253.115c30.913,8.09-6.383,65.196-33.319,58.55C1072.49,304.407,1108.345,246.066,1135.534,253.115z"/>
					<path d="M1188.138,392.2c-6.953-7.362-3.222-12.925,2.3-43.729c16.639,7.824,27.474-2.538,29.957-10.607
						c4.011-13.006-7.979-21.017-29.588-41.134l-2.543,2.747c8.014,8.741,7.467,5.01-35.031,50.575
						c-4.045,4.333-6.672,1.925-10.717-1.16l-2.544,2.748c14.382,13.327,9.49,8.743,19.875,18.611l2.575-2.719
						c-8.083-8.268-5.041-7.733,14.167-28.147l4.85,4.608c-2.336,14.319-4.736,24.996-8.414,38.778l12.506,12.116L1188.138,392.2z
						 M1194.975,344.173c-7.291,0.52-10.418-3.472-15.279-8.091l21.968-23.353c5.791,5.502,10.369,8.673,10.075,15.055
						C1211.397,335.202,1203.064,343.596,1194.975,344.173z"/>
					<path d="M1256.115,410.556c-1.109-5.811-3.287-10.561-4.951-14.882c-12.223-31.422,39.092-31.775,14.57,8.094l2.646,2.645
						l17.306-17.819l-2.625-2.624l-3.879,1.193c-3.625-21.477-24.269-24.713-35.197-13.606
						c-11.869,12.066-5.301,22.131-0.098,35.984c4.031,10.846-5.536,20.373-12.613,20.99c-6.67,0.587-22.315-8.985-7.372-33.888
						l-2.65-2.615l-17.516,18.72l2.602,2.567l4.102-1.361C1216.892,449.234,1261.048,436.395,1256.115,410.556z"/>
					<path d="M1321.289,423.067c-1.189,0.609-0.787,0.583-14.131-12.895l-14.418,14.293l2.276,2.295
						c4.055-2.478,7.387-3.838,10.104-4.485c6.45-3.574,6.208-2.054,7.987-0.249c-32.966,65.931-26.324,67.002-44.271,50.468
						l-2.337,2.962c21.268,21.566,12.22,14.32,39.661,31.752l0.583-3.915c-17.286-11.862-13.027-7.195,8.661-78.938
						c3.21,3.255,2.165,0.629,4.784,26.566c0.67,0.142,1.453-0.033,2.052-0.348L1321.289,423.067z"/>
					<path d="M1364.044,380.347l-19.026,19.031l2.653,2.641c10.45-9.081,12.15-4.302,42.172,25.689
						c17.071,17.055-4.322,42.909-23.732,23.714c-32.823-32.528-35.694-31.347-27.835-39.95l-2.657-2.637l-9.53,9.613l1.667,3.637
						c6.008-3.142,27.453,42.794,37.54,46.589c7.338,2.695,14.729-2.278,15.729-2.243c7.124-1.745,13.898-7.014,17.596-14.052
						c9.593-18.232-6.426-28.77-27.714-50.057c-8.405-8.409-10.896-12.11-4.222-19.322L1364.044,380.347z"/>
					<path d="M1428.221,318.075c-11.022,10.404-7.195,6.773-17.909,16.998l2.591,2.703c11.702-9.182,10.763-6.458,33.838,44.621
						c-54.786-29.237-53.773-24.231-44.921-33.942l-2.605-2.689c-12.018,11.698-7.857,7.632-19.574,19.132l2.627,2.667
						c7.288-6.074,8.762-3.832,72.257,30.134l2.716-2.62c-31.007-65.365-32.725-67.82-26.454-74.277L1428.221,318.075z"/>
					<path d="M1515.533,240.736c-6.271,5.177-3.547,2.884-18.611,15.621l2.43,2.848c11.376-8.121,9.765-4.874,33.415,42.65
						c-13.848-9.165-28.912-18.956-49.669-32.159l-3.465,3.033c7.652,16.761,17.063,36.77,24.615,52.51
						c-48.037-32.873-47.137-27.752-38.083-36.973l-2.501-2.786c-12.069,10.918-7.823,7.05-20.078,18.287l2.538,2.752
						c7.65-5.921,6.542-4.729,66.878,36.511l2.967-2.662c-7.794-16.258-17.454-36.842-25.47-54.438
						c14.295,9.118,29.827,19.194,50.205,32.717l3.141-2.699c-28.973-60.398-33.807-65.22-25.927-72.325L1515.533,240.736z"/>
					<path d="M1628.998,242.87c-8.524,5.483-6.934,2.431-45.093-12.545c-2.604-33.762-2.47-35.749,4.079-40.922l-2.185-3.04
						c-1,0.707-10.136,7.311-20.254,14.905l2.248,2.994c10.434-7.044,9.838-2.047,11.726,24.307
						c-27.71-10.811-28.372-11.018-19.172-18.692l-2.27-2.977c-1.012,0.781-16.817,12.935-24.538,19.172l2.339,2.923
						c7.927-5.233,7.512-4.567,43.574,9.752c3.718,37.787,4.102,37.337-1.995,43.226l2.34,2.923
						c11.341-9.055,16.928-13.314,18.658-14.646l-2.286-2.966c-8.863,6.207-9.842,4.618-12.049-26.686
						c29.311,11.89,29.764,12.866,20.952,19.881l2.258,2.987c6.094-4.574,15.373-11.539,23.847-17.552L1628.998,242.87z"/>
					<path d="M1659.726,137.714c-10.102,6.058-5.63,3.314-20.15,12.355l1.997,3.166c12.513-5.935,10.014-5.073,12.77,31.792
						c-33.167-20.256-33.865-17.942-23.164-25.129l-2.036-3.142c-8.453,5.455-18.78,12.391-24.043,16.059l2.121,3.085
						c6.887-3.967,10.727-1.079,25.961,7.974c22.386,13.378,17.375,9.687,29.301,27.996c3.395,5.221,0.005,7.345-4.708,11.128
						l2.075,3.117c5.291-3.563,13.873-9.162,24.732-15.922l-1.977-3.18c-10.663,6.107-11.449,0.736-20.065-12.813
						c-2.614-4.107-3.244-5.887-3.753-11.119c-2.834-27.836-3.297-37.875,2.858-42.152L1659.726,137.714z"/>
					<path d="M1749.172,147.801c3.026,23.645-3.853,23.006-24.879,34.377c0.329-22.184,2.295-54.043,5.266-80.003l-0.799-1.663
						c-17.735,8.54-29.107,14.551-45.459,23.588l8.531,19.446l2.876-1.59c-3.613-20.944,5.902-22.872,24.214-31.983
						c-2.414,25.359-3.796,53.868-3.942,80.005l0.907,1.607c14.073-7.775,26.871-14.806,44.369-23.189l-8.229-21.961
						L1749.172,147.801z"/>
				</g>
				<g>
					<path d="M1841.944,131.376c-10.803,2.937-12.664-9.298-53.643-57.58l-3.641,1.374c1.345,62.812,8.235,73.196-2.487,78.997
						l1.502,3.43c13.165-5.646,8.552-3.718,21.511-8.97l-1.382-3.48c-10.571,3.535-11.539,0.466-12.583-18.807
						c10.374-4.181,5.54-2.308,21.025-8.146c13.606,17.546,15.267,16.937,5.36,21.649l1.303,3.51
						c5.12-1.933,15.01-5.443,24.193-8.416L1841.944,131.376z M1790.929,121.397c-0.579-9.263-1.18-21.105-1.492-30.652
						c6.301,7.376,13.531,16.075,19.634,23.63C1795.64,119.439,1800.061,117.717,1790.929,121.397z"/>
					<path d="M1887.783,81.319l-0.104-0.463c20.102-9.849,14.719-38.457-11.139-32.815c-19.08,4.632-12.461,2.944-30.987,7.932
						l1.016,3.603c8.148-1.454,9.771,1.603,10.551,4.522c16.285,60.891,17.737,56.449,7.423,60.372l1.017,3.603
						c26.311-7.086,40.238-6.784,44.495-22.141C1913.034,95.011,1906.486,79.783,1887.783,81.319z M1884.193,79.123
						c-2.88,2.064-5.781,2.541-11.777,3.994l-6.983-27.933c7.037-1.954,13.146-4.335,17.873-0.809
						C1889.053,58.589,1892.377,73.482,1884.193,79.123z M1891.061,117.194c-12.099,4.212-11.44-5.233-17.558-29.729
						c7.694-2.292,13.813-4.41,19.482-0.362C1900.671,92.631,1904.357,112.562,1891.061,117.194z"/>
					<path d="M1993.324,88.669l-3.421-1.744c-5.116,19.696-22.507,23.248-33.256,9.578c-10.085-12.976-11.63-37.267-5.64-48.971
						c7.011-13.537,27.428-18.352,34.867,12.18l3.841-0.175l-1.582-26.638l-3.92,0.179l-1.816,3.673
						c-20.726-12.523-44.494,2.818-45.975,29.407C1934.036,108.167,1980.67,130.703,1993.324,88.669z"/>
					<path d="M2058.532,34.728c-11.8-2.938-26.542-2.223-36.819-2.361l-0.043,3.743c8.101,0.784,8.963,3.87,8.874,7.232
						c-1.592,61.163,1.023,60.231-10.001,60.099l-0.041,3.744c23.187,0.448,48.45,6.619,60.07-21.261
						C2087.329,69.726,2086.213,41.62,2058.532,34.728z M2045.568,103.542c-9.494-1.763-7.307-1.956-4.504-66.106
						c16.021-0.155,27.929,3.918,30.992,23.304C2075.069,79.799,2066.336,107.789,2045.568,103.542z"/>
					<path d="M2160.595,103.936c-0.552,1-8.425,13.619-13.432,13.903c-5.01,0.21-13.969-2.04-16.545-3.016
						c-5.963-2.263-3.958-5.789,1.417-32.386c9.468,1.985,17.112,1.556,14.778,16.262c1.981,0.434,1.276,0.268,3.291,0.771
						l6.769-28.528c-2.107-0.524-1.367-0.35-3.443-0.806c-4.745,13.765-10.914,10.081-20.539,8.062l5.885-29.153
						c11.105,2.336,15.084,3.181,18.603,4.467c4.126,1.581,6.835,10.807,6.772,15.496l3.45,0.861l4.428-17.482
						c-16.715-4.17-36.209-8.529-52.342-11.117l-0.628,3.691c12.718,2.987,9.479,2.508-1.465,61.628
						c-1.094,5.887-4.808,5.092-9.826,4.759l-0.628,3.691c16.674,2.65,35.402,7.112,49.885,10.725l6.71-21.043L2160.595,103.936z"/>
					<path d="M2257.739,80.312c-17.958-7.162-30.483-11.839-51.321-18.286l-1.105,3.577c12.013,4.817,9.513,2.374-9.562,61.046
						c-1.866,5.716-5.419,4.38-10.314,3.294l-1.105,3.577c10.115,3.121,19.555,6.345,25.171,8.414l1.273-3.521
						c-10.096-4.338-7.167-5.884,2.395-33.653c10.436,3.397,17.292,4.82,13,18.412c1.941,0.722,1.262,0.461,3.141,1.211
						l10.622-27.441c-1.969-0.785-1.275-0.518-3.308-1.275c-6.27,13.04-12.775,8.025-22.05,5.003l9.773-28.424
						c4.188,1.374,14.467,4.951,18.524,7.122c3.958,2.261,5.201,12.234,4.488,16.958l3.313,1.322L2257.739,80.312z"/>
					<path d="M2323.159,159.852c-3.711-2.287-20.545-12.562-24.43-14.489l-1.867,3.367c7.993,5.363,7.922,7.738,5.227,12.356
						c-7.66,13.148-6.874,13.21-12.925,12.638c-35.361-3.182-5.417-78.447,24.788-63.98c10.921,5.23,10.329,19.283,6.553,30.882
						l3.286,2.025l13.219-22.576l-3.375-2.076l-3.576,2.058c-8.455-17.018-33.166-25.1-51.427-7.75
						c-19.446,18.458-25.484,63.506,17.609,67.57c1.546,0.181,3.164,0.311,4.859,0.388c11.361-21.576,12.269-20.504,20.001-17.159
						L2323.159,159.852z"/>
					<path d="M2376.784,239.759c-7.239-7.706-4.98-6.344,35.596-49.99c2.339-2.52,4.943-4.07,11.133,1.501l2.598-2.696
						c-7.685-7.416-14.863-13.89-21.669-19.695l-2.436,2.843c8.563,8.537,3.341,10.326-12.734,28.408
						c-8.442-7.658-17.814-15.052-23.765-19.81c16.663-21.381,16.16-24.655,25.466-17.784l2.353-2.912
						c-7.162-5.728-15.739-12.429-23.264-17.731l-2.182,3.042c9.676,7.855,5.916,7.679-28.977,54.543
						c-3.506,4.699-6.073,2.573-10.263,0.183l-2.182,3.043c6.208,4.356,13.889,10.364,19.835,15.119l2.353-2.912
						c-7.571-6.685-3.895-7.96,13.977-30.888c5.189,4.15,14.635,11.546,23.527,19.612c-22.09,24.841-19.539,25.033-27.96,19.223
						l-2.436,2.843c5.615,4.777,12.04,10.574,18.431,16.752L2376.784,239.759z"/>
					<path d="M2414.535,281.195c-7.2-9.665-5.343-7.455,41.013-46.053c3.329-2.782,6.1-2.326,11.586,4.005l2.924-2.338
						c-2.516-3.12-9.828-12.38-20.58-24.158l-2.772,2.516c8.785,11.037,6.399,8.307-39.207,48.033
						c-4.502,3.905-6.838,0.632-10.66-2.778l-2.773,2.516c8.904,9.724,15.723,18.336,17.544,20.594L2414.535,281.195z"/>
					<path d="M2514.155,301.339c-4.75-8.13-9.595-16.221-16.297-26.295l-3.124,2.063c6.754,11.754,4.178,9.708-33.802,33.76
						c-6.293,3.983-14.021,8.411-19.562,6.968c-4.528-1.156-8.057-7.302-5.324-12.413c2.819-1.016,5.857-0.716,9.448-1.696
						c9.411-2.559,6.977-12.762,0.2-12.082c-7.644,0.775-19.011,12.118-12.747,24.036c11.747,22.743,41.975-1.99,67.418-17.419
						c2.973-1.801,5.765-2.565,10.554,4.959L2514.155,301.339z"/>
					<path d="M2489.964,416.103c-3.484-10.644,6.108-15.13,22.509-45.712c26.461,9.301,34.796,6.674,39.113,18.292l3.496-1.339
						c-2.954-7.787-7.781-19.556-9.794-24.124l-3.438,1.483c3.577,9.39,2.645,12.718-36.188-1.468l-0.396-0.834
						c26.557-12.375,28.09-15.965,33.238-5.279l3.417-1.53c-2.778-6.284-7.638-16.624-12.468-26.113l-3.338,1.695
						c4.688,11.254,2.376,8.925-50.841,34.935c-5.457,2.654-6.933-0.978-9.199-4.443l-3.338,1.695
						c4.057,7.957,8.481,17.342,10.889,22.807l3.417-1.53c-3.772-9.81,0.109-9.137,26.36-21.368l0.512,1.08
						c-5.732,11.995-14.209,25.656-23.743,37.089c3.982,9.75,2.634,6.333,6.287,15.981L2489.964,416.103z"/>
					<path d="M2528.966,478.569c-3.181-0.182-16.294-2.013-18.586-4.939c-2.922-3.949-4.979-12.187-5.25-14.229
						c-0.923-6.164,0.071-4.874,55.932-21.916c3.335-1.02,6.48-0.925,9.239,7.077l3.594-1.046
						c-7.057-23.395-5.217-17.582-8.695-27.734l-3.55,1.189c3.029,11.861,0.969,9.282-55.049,27.299
						c-5.591,1.792-6.754-1.429-8.807-5.92l-3.551,1.189c7.148,20.778,12.196,40.834,13.616,46.285l21.911-4.163L2528.966,478.569z"
						/>
					<path d="M2528.209,584.868c-0.588-11.173-0.706-8.48,59.661-14.065c3.449-0.322,6.333,0.314,7.469,8.723l3.732-0.292
						l-2.209-22.508c-5.378,0.347-19.495-4.151-58.113-11.082c16.822-8.19,34.657-17.511,52.479-27.567
						c-3.352-18.684-2.472-14.164-4.441-23.155l-3.664,0.771c2.248,13.492-5.611,12.07-46.945,20.106
						c-13.136,2.542-16.004,2.251-19.034-6.617l-3.664,0.774c1.911,8.667,0.833,3.11,4.646,24.388l3.692-0.621
						c-1.594-13.143,5.356-11.854,59.603-21.942l0.111,0.616c-25.793,14.536-45.032,24.031-60.626,31.594l0.297,2.147
						c26.007,4.484,46.294,9.031,66.07,13.797l0.071,0.718c-59.905,6.579-59.662,10.279-61.97-2.898l-3.715,0.468
						c0.665,4.765,2.771,25.977,2.818,26.936L2528.209,584.868z"/>
					<path d="M2598.37,684.093c0.758-7.484,0.412-2.71,1.976-28.229l-3.74-0.168c-1.916,15.003-7.302,11.702-53.935,8.696
						c20.07-10.671,39.829-22.794,58.328-35.357l-0.367-19.849l-3.742,0.115c-0.622,16.164-13.92,12.554-49.543,12.98
						c-11.904,0.125-16.692-0.112-17.746-9.879l-3.743,0.107c0.377,20.022,0.366,13.939,0.124,25.065l3.744,0.065
						c1-13.393,7.608-11.012,56.886-11.128c-14.439,10.049-39.75,25.445-62.447,37.106l-0.228,3.73
						c66.82,4.912,71.714,2.259,70.705,16.405L2598.37,684.093z"/>
					<path d="M2585.503,722.207c-13.981-17.821-45.116-19.535-61.156-7.076c-13.007,9.825-15.287,28.796,0.18,43
						c12.923,12.024,34.994,16.442,49.637,9.609C2592.729,759.212,2596.739,736.524,2585.503,722.207z M2573.329,723.349
						c15.168,7.953,17.023,22.567,9.146,30.336c-14.435,14.628-62.906,3.834-63.888-19.179
						C2517.655,714.509,2555.731,714.123,2573.329,723.349z"/>
					<path d="M2572.923,809.977l-3.568-1.135c-3.393,8.388-5.651,8.246-9.477,6.96c-59.94-20.139-56.971-16.339-54.781-27.094
						l-3.567-1.138c-2.522,8.124-0.385,1.848-8.492,24.704l3.505,1.318c4.193-10.744,5.366-7.558,30.393,1.382
						c-2.369,6.67-10.673,24.229,5.502,35.636C2555.465,866.818,2565.047,836.548,2572.923,809.977z M2528.516,826.032
						c0.266-3.12,1.562-6.194,2.742-9.518l31.144,11.1c-2.053,5.695-4.236,17.575-17.141,15.317
						C2535.729,841.26,2527.629,835.565,2528.516,826.032z"/>
					<path d="M2529.351,894.58c-9.988-26.793-55.292-38.333-69.834-14.071c-14.236-6.396-24.781-1.733-28.663,16.174l3.521,2.227
						c0.951-2.575,2.124-4.909,3.604-7.392c2.404-4.059,11.056-5.202,18.204-1.22c-2.624,20.994,19.015,42.473,41.497,44.456
						C2521.589,936.853,2536.753,914.459,2529.351,894.58z M2516.848,923.895c-20.344,10.542-66.337-20.722-53.421-41.317
						c4.017-6.477,12.611-7.723,20.248-6.633C2522.541,881.344,2535.999,914.31,2516.848,923.895z"/>
					<path d="M2394.948,979.915c6.893-7.089,12.49-2.858,43.272,0.385c-6.713,17.444,4.54,27.578,12.46,29.402
						c12.1,2.784,20.577-7.726,39.552-34.934l-3.044-2.18c-7.905,9.49-4.203,8.387-54.39-28.721
						c-4.462-3.304-3.031-5.777-0.358-10.487l-3.044-2.18c-4.078,5.813-15.104,20.21-15.463,20.612l2.933,2.327
						c7.014-8.438,6.873-5.49,29.106,11.597l-4.025,5.29c-12.513-0.778-26.545-3.168-38.928-5.946
						c-1.685,2.054,0.393-0.343-10.848,12.325L2394.948,979.915z M2444.342,975.827c1.296-2.429,3.188-4.669,5.227-7.33
						l25.434,19.521c-4.612,6.181-7.842,11.642-14.55,11.956C2450.679,1000.441,2438.042,987.114,2444.342,975.827z"/>
					<path d="M2392.17,1042.239c33.03-12.154,29.545,41.171-9.006,14.28l-2.833,2.549l16.62,18.453l2.919-2.624l-0.89-4.022
						c33.098-4.563,24.21-45.337-1.646-42.235c-4.35,0.525-8.814,2.22-13.66,4.036c-35.012,12.93-33.671-43.399,8.066-17.657
						c1.581-1.532,1.015-0.964,2.578-2.583l-18.651-17.573c-0.587,0.64-1.013,1.031-2.445,2.417l1.381,4.021
						c-26.074,3.551-24.873,29.05-13.642,39.928C2370.501,1050.478,2381.478,1045.861,2392.17,1042.239z"/>
					<path d="M2322.605,1133.081c15.826-9.824,34.707-23.611,49.493-35.052l-12.526-15.977l-2.624,2.031
						c7.882,17.718-0.906,21.073-7.335,25.679c-40.483-56.195-41.391-51.239-31.062-60.171l-2.242-2.999
						c-1.001,0.766-13.385,9.827-23.575,16.56l2.077,3.116c0.669-0.433,7.066-3.713,9.943-1.916
						c1.885,1.193-0.573-1.905,36.421,51.448c-2.656,1.874-6.418,4.354-9.27,5.721c-4.091,1.843-14.047-4.004-17.43-7.376
						c-2.652,1.752-2.081,1.386-2.739,1.787L2322.605,1133.081z"/>
					<path d="M2233.937,1179.424c11.968-5.038,6.931-2.804,25.952-11.656l-1.618-3.376c-13.624,5.248-13.375,0.089-30.954-38.537
						c-9.813-21.638,16.764-38.227,29.42-14.29c21.584,40.911,24.817,40.577,14.108,46.582l1.696,3.337
						c14.446-7.393,8.924-4.446,25.526-13.731l-1.853-3.253c-4.369,1.969-8.865,2.716-11.344-1.81
						c-21.103-38.379-24.554-52.021-42.913-49.88c-8.937,1.043-25.899,9.351-20.313,29.998
						c4.032,14.944,18.767,38.203,17.941,45.807c-0.323,2.99-2.431,5.174-7.105,7.359L2233.937,1179.424z"/>
					<path d="M2144.808,1209.164c15.413-3.893,10.077-2.448,24.99-6.798l-1.06-3.59c-16.469,3.208-11.642-1.218-9.76-55.092
						c35.608,51.35,38.271,45.1,25.136,50.35l1.156,3.561c18.502-6.194,13.2-4.301,27.171-9.567l-1.324-3.502
						c-7.513,2.18-9.855,3.885-52.453-57.929c-2.021,0.679-1.302,0.454-3.396,1.069c-0.585,75.292-4.354,75.781-11.364,77.865
						L2144.808,1209.164z"/>
					<path d="M2024.553,1226.504c22.804-1.23,17.361-0.876,25.203-1.601l-0.313-3.731c-15.232,0.269-10.108-3.385-2.329-54.141
						c7.611,20.296,14.843,37.606,22.402,54.862l4.753-0.627c3.175-17.617,6.301-37.988,8.668-57.319
						c21.648,52.702,25.832,48.455,11.946,51.658l0.598,3.696c20.193-3.474,14.202-2.322,27.901-5.218l-0.772-3.663
						c-8.375,1.074-8.801,3.776-37.603-66.204l-3.733,0.645c-2.429,20.6-5.002,38.939-8.584,59.376
						c-8.047-18.525-14.5-33.914-22.505-55.478l-3.932,0.366c-11.049,68.424-12.149,72.692-21.856,73.638L2024.553,1226.504z"/>
					<path d="M1938.525,1152.476c10.195,1.491,6.516,4.12,25.15,39.14c-20.142,27.49-22.263,28.496-30.48,28.006l-0.409,3.721
						c18.622,1.922,13.065,1.461,25.831,2.28l0.251-3.735c-13.126-1.484-8.588-5.06,7.01-26.086
						c13.639,25.341,15.591,27.021,2.572,26.694l-0.192,3.739c6.754,0.424,26.279,0.883,32.211,0.801l-0.007-3.744
						c-8.605-0.613-9.619-0.508-27.941-35.134c20.167-29.135,18.923-31.239,28.417-32.216l-0.011-3.744
						c-5.411,0.087-0.569,0.141-22.783-0.392l-0.149,3.741c8.877,0.623,12.087,1.366-7.832,28.136
						c-14.635-28.33-13.525-29.104-2.979-28.742l0.224-3.738c-15.882-1.012-9.911-0.525-28.46-2.448L1938.525,1152.476z"/>
					<path d="M1843.654,1206.877c10.294,2.743,5.787,1.65,23.464,5.635l0.805-3.656c-13.298-4.604-10.87-3.362,13.247-31.533
						c9.086,36.627,12.795,36.406-0.923,34.174l-0.731,3.672c24.561,4.525,18.753,3.54,29.221,5.048l0.555-3.702
						c-7.812-1.8-8.756-6.098-13.655-23.683c-6.895-25.003-5.778-19.169-1.625-40.458c1.203-6.116,5.033-5.373,10.885-4.807
						l0.653-3.687c-17.279-3.172-11.293-1.958-28.04-5.729l-0.843,3.648c11.608,3.06,8.444,7.53,5.095,23.201
						c-1.017,4.766-1.802,6.455-5.106,10.524c-17.67,21.989-24.649,29.201-32.058,27.729L1843.654,1206.877z"/>
					<path d="M1788.926,1135.025c16.297-19.505,20.973-11.502,41.747-5.458c-18.236,16.87-40.226,35.094-61.929,50.834l-0.679,1.716
						c25.802,10.241,38.868,14.067,48.934,17.185l8.149-19.614l-3.161-0.978c-13.014,17.546-20.779,11.198-40.214,4.32
						c21.451-16.425,42.087-34.106,60.792-52.212l0.528-1.768c-5.033-1.559-23.777-7.071-46.571-16.144l-10.525,20.955
						L1788.926,1135.025z"/>
				</g>
				<g>
					<path d="M1714.413,1077.65c9.512,6.37,1.678,15.438-6.576,78.469l3.499,1.716c47.037-44.821,48.822-55.181,60.099-51.379
						l1.518-3.423c-12.992-5.759-8.504-3.671-21.017-9.807l-1.646,3.363c9.667,5.486,8.058,8.275-5.475,21.98
						c-18.199-8.911-14.277-6.929-20.148-10.089c3.818-21.4,2.218-22.986,12.409-18.471l1.724-3.324
						c-22.635-12.181-17.846-9.532-22.532-12.289L1714.413,1077.65z M1741.36,1122.103c-6.762,6.96-14.743,14.946-21.691,21.71
						c1.918-15.315,3.324-24.175,4.287-30.385C1728.129,1115.672,1724.766,1113.978,1741.36,1122.103z"/>
					<path d="M1646.301,1077.855l-0.263,0.395c-21.011-7.605-37.518,16.292-16.088,30.673c7.075,4.747,3.319,2.331,26.385,16.913
						l1.967-3.185c-6.46-4.94-5.314-8.206-3.703-10.763c33.586-53.339,29.287-51.429,39.348-46.367l1.966-3.186
						c-11.4-7.23-19.879-13.4-27.047-17.139c-15.541-7.828-28.484,1.771-30.536,13.464
						C1637.261,1064.751,1639.279,1071.662,1646.301,1077.855z M1647.195,1081.95c3.461,0.678,5.708,2.593,10.938,5.843
						l-15.599,24.2c-5.871-3.409-11.888-6.466-12.594-12.262C1629.077,1092.733,1637.446,1079.974,1647.195,1081.95z
						 M1670.048,1050.772c11.423,6.242,4.484,11.587-9.487,33.254c-6.198-3.527-12.667-6.897-13.695-13.922
						C1645.468,1060.526,1657.603,1044.016,1670.048,1050.772z"/>
					<path d="M1574.611,998.746l1.451,3.635c17.144-11.385,32.941-1.756,31.591,15.763c-1.843,22.84-33.087,53.351-48.635,35.883
						c-4.509-5.117-5.526-14.323,2.044-28.563l-2.949-2.407l-16.413,21.045l2.933,2.393l3.75-1.587
						c10.2,32.118,54.767,24.507,66.734-12.66C1624.014,1004.763,1601.625,982.041,1574.611,998.746z"/>
					<path d="M1483.332,985.879c3.471,15.6,21.131,27.217,33.391,37.615l2.412-2.863c-5.532-5.588-4.242-8.523-2.061-11.083
						c39.663-46.585,36.959-47.618,45.717-40.188l2.411-2.864c-19.38-16.533-36.365-36.741-61.948-20.913
						C1489.792,953.909,1480.043,970.853,1483.332,985.879z M1512.442,951.87c19.223-13.728,32.035,1.276,32.964,5.885
						c0.807,4.035,0.277,3.353-40.076,50.127c-6.257-4.986-10.087-7.94-12.358-13.846
						C1487.207,979.119,1498.617,961.742,1512.442,951.87z"/>
					<path d="M1444.365,886.275c1.471-0.888,14.191-7.465,18.799-5.092c4.65,2.358,11.795,9.851,13.163,11.577
						c4.119,5.2,0.477,7.123-18.178,26.852c-7.033-6.692-13.808-10.205-4.291-21.698l-2.492-2.371l-20.306,21.149l2.518,2.396
						c11.065-9.408,14.509-3.082,21.601,3.666l-20.432,21.612c-7.915-7.53-10.819-10.159-13.054-13.003
						c-2.619-3.344-0.251-12.513,2.176-16.554l-2.495-2.421l-12.53,12.971c8.05,7.81,23.77,22.814,37.209,35.309l2.551-2.74
						c-8.426-9.276-7.124-6.195,34.761-50.845c3.92-4.175,6.737-1.935,11.123,1.556l2.551-2.74
						c-6.961-6.421-21.545-20.131-38.823-36.897l-16.221,14.974L1444.365,886.275z"/>
					<path d="M1347.726,865.042c26.656,26.636,18.599,18.64,36.654,36.446l2.626-2.668c-8.053-9.417-7.043-6.218,36.283-50.057
						c4.251-4.299,6.933-1.34,10.951,2.061l2.626-2.669c-8.325-8.21-12.431-12.245-19.978-19.784l-2.643,2.652
						c7.849,8.56,3.992,8.986-16.443,29.563c-7.332-7.324-13.973-11.315-4.136-22.393l-2.44-2.437l-20.818,20.796l2.453,2.45
						c10.737-9.095,14.709-2.524,21.893,4.653l-21.18,21.328c-8.137-8.128-10.914-10.756-13.088-13.67
						c-2.513-3.522,0.418-12.958,2.957-17.022l-2.451-2.453L1347.726,865.042z"/>
					<path d="M1305.292,795.394c11.028-10.343,14.651-15.68,24.563-5.959l0.579-4.053c-7.817-7.875-10.475-6.36-10.515-13.031
						c-0.059-7.611-0.393-11.323,0.38-13.494c1.574-4.252,11.963-3.234,13.054-2.721c11.884,6.201,18.27,15.583,19.85,25.581
						c3.258,22.854-14.044,40.205-22.309,50.149c-8.625,9.857-6.836,10.124-14.45-26.859c-0.863,0.738-1.326,1.214-2.164,2.042
						c2.775,19.987,1.824,13.011,4.444,32.656c0.237-0.23,0.429-0.424,0.671-0.623c-0.01-1.58,0.036-3.549,0.11-5.058
						c3.91,8.957,2.279,10.564,7.565,6.437c9.183-7.219,11.159-8.032,18.68-13.628c48.906-36.673-9.356-93.695-36.46-69.857
						c-0.58,0.515-1.145,0.917-1.745,1.714c5.529,24.566,2.69,26.089-3.319,32.763L1305.292,795.394z"/>
					<path d="M1214.655,843.179c8.421-7.581,6.794-5.236,48.789,37.205c2.423,2.448,3.831,5.029-1.515,10.751l2.628,2.666
						l19.43-19.255l-2.643-2.652c-8.709,7.339-10.191,2.242-27.248-14.926l21.775-21.734c19.19,19.144,22.361,19.15,15.009,27.131
						l2.648,2.647l18.751-18.813l-2.605-2.69c-9.354,5.541-3.847,7.702-49.065-37.341c-4.055-4.04-1.783-6.586,2.208-11.041
						l-2.605-2.69l-19.608,19.678l2.648,2.647c8.027-7.329,8.713-3.375,29.296,17.16l-21.76,21.718
						c-23.467-23.622-23.974-21.029-16.979-29.443l-2.643-2.652l-19.14,18.968L1214.655,843.179z"/>
					<path d="M1171.61,884.912c9.612-8.548,7.415-6.29,49.105,37.263c2.983,3.114,2.824,5.866-2.706,11.541l2.58,2.713
						c12.983-12.394,8.332-7.928,21.511-20.654l-2.606-2.688c-10.273,8.464-7.319,6.693-49.622-37.191
						c-4.131-4.288-0.849-7.042,2.742-11.151l-2.607-2.688c-12.562,12.131-8.081,7.83-20.977,20.141L1171.61,884.912z"/>
					<path d="M1166.135,986.61c8.716-7.751,3.939-3.444,21.831-19.689l-2.529-2.76c-10.195,7.945-8.297,5.695-38.783-27.891
						c-7.369-8.126-14.163-17.109-7.213-23.448c2.502-2.312,5.636-3.65,9.133-2.48c1.386,2.683,1.48,5.813,2.961,9.255
						c3.841,8.964,13.717,4.846,12.231-1.716c-3.126-13.79-26.175-17.87-32.353-0.393c-5.284,15.127,6.342,23.644,34.771,55.247
						c2.317,2.578,3.603,5.155-2.537,11.078L1166.135,986.61z"/>
					<path d="M1049.091,992.06c9.184-6.539,15.789,0.454,50.628,8.212c-1.639,27.841,3.635,34.84-6.011,42.386l2.319,2.939
						c3.757-2.956,17.703-14.156,19.632-15.789l-2.373-2.896c-6.629,4.784-9.866,5.458-9.642-16
						c0.106-7.851,0.809-15.79,1.166-19.083l0.71-0.589c19.051,22.726,22.458,22.916,13.94,30.561l2.388,2.883
						c8.666-7.172,3.926-3.185,21.267-17.914l-2.44-2.84c-9.545,6.864-7.886,4.218-46.243-40.911
						c-3.949-4.653-0.631-7.059,2.363-10.17l-2.44-2.84c-16.528,14.037-11.7,9.98-20.245,17.052l2.389,2.883
						c8.701-6.631,9.315-2.212,27.699,19.72l-0.922,0.764c-14.191-2.771-28.888-6.75-42.562-12.407
						c-10.244,8.246-7.182,5.821-13.935,11.093L1049.091,992.06z"/>
					<path d="M1001.669,1049.829c-0.925-3.034-3.542-16.124-1.558-19.26c2.689-4.31,10.102-8.778,11.935-9.788
						c5.608-2.985,4.682-1.593,38.993,45.669c2.038,2.808,3.026,5.852-3.546,10.96l2.175,3.047
						c2.953-2.077,17.187-12.435,22.995-16.874l-2.25-2.992c-10.163,6.428-8.385,3.788-43.439-43.56
						c-3.43-4.638-0.897-6.7,2.973-10.266l-2.25-2.993c-11.956,9.04-25.481,18.778-40.073,28.688l11.377,19.169L1001.669,1049.829z"
						/>
					<path d="M901.293,1088.136c10.282-4.738,7.682-3.867,35.718,49.906c1.594,3.056,2.133,6.009-5.195,10.121l1.693,3.339
						c3.064-1.516,18.572-9.702,19.812-10.387c-2.343-4.87-3.563-19.207-11.339-57.984c16.484,14.915,30.366,26.734,44.794,38.804
						c18.625-11.505,16.039-9.904,19.716-12.282l-2.015-3.155c-11.711,6.845-13.601-1.706-35.471-36.807
						c-7.237-11.622-7.708-14.221-0.442-20.162l-2.017-3.155c-3.993,2.586-18.297,11.47-21.478,13.293l1.921,3.214
						c11.977-6.048,12.673-0.043,42.004,47.645l-0.526,0.325c-16.728-14.027-32.312-27.366-51.508-45.009l-1.898,1.117
						c5.377,26.937,7.915,41.678,11.717,66.48l-0.633,0.333c-28.312-52.516-32.115-51.594-20.502-58.607l-1.818-3.273
						c-10.257,5.72-22.96,12.306-24.223,12.904L901.293,1088.136z"/>
					<path d="M837.475,1191.674c9.792-3.241,5.487-1.732,26.499-9.345l-1.327-3.501c-14.466,4.183-13.595-2.064-29.368-46.051
						c18.431,14.657,35.648,26.683,55.42,39.554c13.167-5.652,9.49-4.01,18.027-7.951l-1.558-3.404
						c-14.872,5.944-17.08-8.256-31.212-40.562c-4.619-10.572-6.536-15.211,2.239-20.231l-1.552-3.407
						c-6.323,2.924-19.743,8.678-23.205,10.046l1.414,3.467c12.714-4.278,12.69,1.503,32.538,47.855
						c-19.702-12.713-40.821-28.016-58.757-42.657l-3.533,1.281c22.345,63.984,26.288,66.439,13.192,71.354L837.475,1191.674z"/>
					<path d="M789.275,1205.497c28.62-21.918,3.768-78.702-28.484-71.473c-28.331,6.118-30.07,51.984-8.627,70.061
						C763.272,1213.527,778.317,1213.523,789.275,1205.497z M791.771,1184.639c-0.914,17.299-13.034,24.752-23.476,21.068
						c-14.931-5.4-21.857-31.686-20.573-46.168c1.763-19.517,16.876-28.179,29.658-15.18
						C784.843,1151.937,792.516,1170.776,791.771,1184.639z"/>
					<path d="M672.658,1224.363c7.171,1.864,19.04-0.059,41.247-3.12l-0.54-3.704c-9.115,0.474-9.856-1.763-10.359-5.583
						c-8.28-62.776-10.408-58.47,0.341-61.013l-0.538-3.705c-18.837,2.518-12.219,1.71-26.203,3.192l0.376,3.725
						c11.61-0.863,9.239,1.569,12.284,27.97c-7.622,0.792-11.025,0.915-15.878,3.029
						C655.276,1192.786,654.866,1219.556,672.658,1224.363z M689.793,1186.682l3.809,32.843c-6.774,0.714-17.629,3.577-21.218-8.588
						c-1.652-5.568-2.027-12.124,1.041-17.09C677.504,1187.294,683.666,1187.332,689.793,1186.682z"/>
					<path d="M628.742,1184.554c-2.232-16.408-11.799-31.656-28.741-33.158c-0.82-15.5-9.808-22.843-27.673-18.055l-0.357,4.151
						c3.222-0.42,5.115-0.351,8.261-0.188c4.737,0.29,9.751,7.471,9.487,15.649c-23.69,8.582-31.412,47.42-14.792,66.498
						C594.506,1241.962,634.424,1226.32,628.742,1184.554z M603.543,1223.701c-30.412,13.399-35.579-54.619-10.913-66.444
						C619.362,1144.14,629.115,1212.712,603.543,1223.701z"/>
					<path d="M481.84,1139.917c9.778,3.257,8.214,9.779,19.61,38.555c-22.383,2.501-25.194,24.383-15.491,32.493
						c8.554,7.197,30.652,9.028,44.414,11.076l0.529-3.706c-12.06-2.773-9.349,0.02,0.364-61.525
						c0.933-5.854,4.298-5.374,9.143-5.141l0.529-3.707c-13.46-2.011-7.395-0.995-25.435-4.222l-0.709,3.676
						c10.723,2.344,8.037,3.604,3.156,31.204l-6.544-1.171c-5.294-12.168-9.46-24.727-12.7-37.251
						c-15.592-3.745-12.778-3.05-15.918-3.904L481.84,1139.917z M508.251,1181.802c2.76-0.004,5.61,0.694,8.91,1.285l-5.564,31.575
						c-7.597-1.37-13.9-1.502-17.329-7.381C489.405,1198.961,495.104,1181.633,508.251,1181.802z"/>
					<path d="M414.506,1154.552c3.378,4.825,7.39,8.224,10.764,11.482c25.58,25.075-23.159,44.145-16.857-1.432l-3.539-1.428
						l-8.86,23.207l3.657,1.474l3.169-2.589c12.81,18.074,34.091,13.201,38.996-2.379c5.174-16.435-6.094-22.595-15.799-32.511
						c-8.079-8.125-2.983-20.63,2.987-24.226c5.798-3.457,22.383-1.497,20.22,27.075l3.49,1.057l7.043-24.644
						c-1.623-0.491-2.384-0.717-3.277-1l-2.931,3.074C433.926,1103.55,400.424,1133.742,414.506,1154.552z"/>
					<path d="M312.514,1144.715c19.708,11.692,29.882,17.437,53.781,28.809l8.599-18.391l-3.004-1.429
						c-12.153,14.875-18.94,8.764-26.318,4.971c32.086-61.357,27.285-59.951,39.849-54.818l1.67-3.351
						c-15.575-8.007-24.21-12.882-25.211-13.505l-1.867,3.246c10.699,7.602,9.035,3.931-23.629,63.486
						c-2.16-1.205-6.646-3.591-9.359-5.685c-3.475-2.894-2.652-14.46-1.124-18.994l-2.822-1.674L312.514,1144.715z"/>
					<path d="M231.687,1084.585c13.224,11.602,8.569,7.63,21.82,18.581l2.352-2.912c-10.686-10.091-5.892-12.066,21.501-44.478
						c15.396-18.162,41.541-1.454,25.515,20.285c-27.891,37.76-26.05,39.935-35.897,32.915l-2.276,2.973
						c6.319,4.881,15.635,11.667,23.648,17.115l2.113-3.09c-3.923-3.196-6.344-6.83-3.385-11
						c25.209-35.547,36.148-44.862,26.267-60.298c-3.018-4.887-7.435-8.205-12.652-10.298
						c-18.189-7.013-28.097,10.094-47.143,32.246c-7.756,9.01-11.283,11.737-19.362,5.177L231.687,1084.585z"/>
					<path d="M167.123,1015.464c7.526,9.615,15.645,19.149,16.532,20.149l2.833-2.448c-9.898-14.08-2.843-11.271,46.205-31.722
						c-31.843,52.908-24.773,53.9-35.445,43.82l-2.758,2.531c12.892,13.642,9.23,9.91,20.206,20.816l2.62-2.674
						c-4.446-5.16-9.095-6.183,30.772-71.878l-2.344-2.642c-68.927,31.068-71.295,26.851-75.676,21.738L167.123,1015.464z"/>
					<path d="M102.769,911.81c4.211,8.774,2.195,4.799,11.422,22.606l3.3-1.769c-5.926-14.18-1.151-10.501,48.761-23.635
						c-12.992,12.525-27.665,27.492-41.355,42.374l2.471,4.131c27.516-6.473,46.976-12.341,56.056-15.026
						c-39.892,41.19-34.131,43.302-42.551,31.714l-3.144,2.032c5.46,8.5,12.389,18.51,16.086,23.565l3.036-2.191
						c-4.287-6.855-7.301-6.678,45.402-61.131l-2.033-3.17c-18.73,5.711-35.281,10.515-57.872,15.959
						c12.9-13.847,25.175-26.706,41.913-42.734l-1.917-3.433c-68.167,17.51-71.784,17.319-76.201,9.085L102.769,911.81z"/>
					<path d="M136.927,803.554c2.568,9.901-1.079,7.547-26.18,38.543c-33.284-7.919-34.867-9.164-37.663-17.04l-3.582,1.087
						c3.652,11.963,2.006,6.882,8.015,24.653l3.533-1.237c-3.671-12.866,1.601-9.76,26.75-3.807
						C89.48,868.956,89.17,870.259,84.322,858.59l-3.513,1.293c5.424,14.58,9.535,24.547,11.931,29.969l3.438-1.481
						c-2.992-8.541-2.767-9.495,21.354-39.545c35.908,7.233,36.142,5.423,40.736,13.454l3.437-1.485
						c-1.811-4.104-6.623-15.853-8.563-21.08l-3.499,1.334c2.906,9.104,2.771,11.185-28.962,3.864
						c20.686-25.36,21.556-23.333,25.189-14.007l3.525-1.262c-0.373-1-3.967-11.064-8.881-27.163L136.927,803.554z"/>
					<path d="M49.433,737.953c1.235,8.124,0.391,3.24,4.098,23.7l3.676-0.71c-0.974-14.438-0.662-10.859,34.286-0.351
						c-30.83,23.707-28.719,25.646-31.742,12.667l-3.661,0.781c2.171,10.272,5.462,23.893,6.798,28.799l3.622-0.948
						c-1.652-8.444,3.273-11.334,22.975-27.161c12.935-10.187,11.129-8.106,29.981-12.198c5.975-1.293,6.743,2.308,8.693,8.129
						l3.645-0.855c-1.309-5.406-3.842-17.032-5.843-28.11l-3.683,0.674c1.699,11.96-3.586,10.764-19.279,13.897
						c-7.848,1.566-47.361-7.432-49.866-18.89L49.433,737.953z"/>
					<path d="M93.179,659.012c22.795,6.474,19.691,12.371,21.916,36.106c-24.239-10.606-50.502-23.925-71.573-36.06l-1.844,0.079
						c0.69,17.596,2.472,38.671,4.036,51.466l21.254-0.409l-0.402-3.278c-20.809-4.739-18.643-13.881-20.055-34.941
						c24.613,13.453,50.825,25.811,72.236,34.59l1.832-0.224c-1.83-14.861-3.481-33.251-4.103-49.398l-23.42-1.084L93.179,659.012z"
						/>
				</g>
			</g>
		</g>
	</g>
</g>
</svg>
